<?xml version="1.0" encoding="utf-8"?>
<!-- Generator: Adobe Illustrator 16.0.0, SVG Export Plug-In . SVG Version: 6.00 Build 0)  -->
<!DOCTYPE svg PUBLIC "-//W3C//DTD SVG 1.1//EN" "http://www.w3.org/Graphics/SVG/1.1/DTD/svg11.dtd">
<svg version="1.1" id="Layer_1" xmlns="http://www.w3.org/2000/svg" xmlns:xlink="http://www.w3.org/1999/xlink" x="0px" y="0px"
	 width="30px" height="30px" viewBox="0 0 30 30" enable-background="new 0 0 30 30" xml:space="preserve">
<g>
	<path fill="#FFFFFF" d="M26.329,26.288c-0.084-0.071-0.09-0.166-0.086-0.264c0-0.069,0.002-0.138,0-0.207
		c-0.003-0.075-0.021-0.146-0.077-0.203c-0.056-0.597-0.283-1.128-0.568-1.65c-0.516-0.943-1.293-1.604-2.205-2.13
		c-0.429-0.247-0.875-0.445-1.325-0.648c-0.555-0.248-1.121-0.453-1.671-0.707c-0.439-0.204-0.893-0.38-1.301-0.639
		c-0.446-0.281-0.764-0.65-0.746-1.232c0.013-0.354-0.02-0.711-0.043-1.065c-0.012-0.187,0.023-0.351,0.142-0.497
		c0.392-0.486,0.69-1.041,0.839-1.629c0.131-0.511,0.357-0.874,0.716-1.261c0.617-0.668,0.652-1.539,0.454-2.408
		c-0.014-0.062-0.049-0.125-0.094-0.169c-0.154-0.162-0.189-0.357-0.104-0.546c0.215-0.471,0.224-0.982,0.329-1.475
		c0.267-1.288,0.209-2.546-0.345-3.757c-0.283-0.62-0.724-1.092-1.328-1.43c-0.489-0.274-1.061-0.366-1.495-0.781
		c-0.457-0.437-1.077-0.58-1.705-0.626c-0.08-0.073-0.179-0.082-0.28-0.08c-0.083-0.004-0.165-0.001-0.248-0.001
		c-0.215-0.004-0.431-0.004-0.647,0c-0.103-0.001-0.203,0.005-0.288,0.077c-0.519,0.053-1.028,0.112-1.536,0.283
		c-0.521,0.175-1.015,0.39-1.448,0.707C10.08,4.821,9.496,6.033,9.406,7.492c-0.024,0.4-0.011,0.804-0.006,1.207
		c0.006,0.57,0.051,1.131,0.215,1.69c0.131,0.448,0.246,0.938-0.12,1.363c-0.04,0.046-0.054,0.12-0.064,0.184
		c-0.109,0.707-0.001,1.383,0.337,2.009c0.106,0.197,0.248,0.396,0.487,0.486c0.196,0.074,0.264,0.245,0.298,0.441
		c0.112,0.643,0.369,1.224,0.723,1.773c0.161,0.25,0.426,0.448,0.403,0.806c-0.028,0.43-0.018,0.861-0.022,1.293
		c-0.001,0.191-0.055,0.355-0.162,0.522c-0.258,0.409-0.652,0.653-1.062,0.844c-0.859,0.401-1.737,0.765-2.616,1.122
		c-0.905,0.366-1.749,0.83-2.478,1.486c-0.551,0.493-0.954,1.094-1.25,1.768c-0.221,0.499-0.332,1.027-0.341,1.576
		c-0.063,0.066-0.081,0.148-0.08,0.234c-0.014,0.244,0.052,0.445,0.286,0.563c0.665,0.037,1.332,0.008,1.998,0.014
		c1.982,0.006,3.964,0.004,5.946,0c2.117,0.006,4.233,0.005,6.35,0c1.812,0.006,3.626,0.005,5.441,0
		c0.767-0.001,1.534,0.015,2.301-0.007c0.139-0.026,0.255-0.088,0.347-0.194C26.333,26.544,26.331,26.416,26.329,26.288z
		 M24.494,25.526c-0.082,0.009-0.169,0.005-0.252,0.005c-3.091,0-6.183,0-9.272,0c-3.101,0-6.202,0-9.302,0
		c-0.411,0-0.458-0.054-0.342-0.439c0.219-0.733,0.67-1.307,1.289-1.75c0.701-0.503,1.479-0.848,2.279-1.17
		c0.836-0.334,1.694-0.636,2.473-1.097c0.621-0.368,1.141-0.845,1.468-1.505c0.055-0.111,0.075-0.233,0.076-0.354
		c0.01-0.787,0.074-1.572,0.035-2.359c-0.008-0.155-0.033-0.298-0.154-0.407c-0.645-0.579-0.936-1.332-1.043-2.166
		c-0.055-0.415-0.165-0.755-0.646-0.819c-0.027-0.004-0.054-0.019-0.077-0.036c-0.357-0.261-0.433-1.245-0.08-1.492
		c0.302-0.211,0.27-0.437,0.192-0.73c-0.289-1.088-0.535-2.189-0.449-3.323c0.076-0.991,0.292-1.948,1.072-2.663
		c0.382-0.351,0.834-0.563,1.333-0.729c0.825-0.277,1.66-0.276,2.5-0.217c0.539,0.037,1.044,0.216,1.393,0.675
		c0.1,0.131,0.234,0.169,0.382,0.21c0.541,0.146,1.093,0.282,1.445,0.778c0.193,0.276,0.356,0.572,0.427,0.904
		c0.216,1.036,0.138,2.079-0.05,3.1c-0.093,0.495-0.175,1.015-0.415,1.48c-0.081,0.16-0.039,0.299,0.113,0.417
		c0.446,0.342,0.467,1.204,0.046,1.575c-0.033,0.031-0.076,0.062-0.119,0.066c-0.377,0.032-0.484,0.293-0.546,0.611
		c-0.098,0.503-0.191,1.012-0.433,1.47c-0.144,0.269-0.245,0.569-0.505,0.761c-0.234,0.175-0.333,0.396-0.316,0.702
		c0.03,0.57,0.042,1.144,0.017,1.713c-0.028,0.63,0.232,1.125,0.638,1.564c0.469,0.508,1.036,0.873,1.681,1.131
		c0.554,0.219,1.092,0.477,1.642,0.704c0.283,0.118,0.569,0.222,0.851,0.347c0.901,0.399,1.73,0.889,2.339,1.68
		c0.253,0.328,0.407,0.713,0.501,1.116C24.72,25.436,24.643,25.513,24.494,25.526z"/>
</g>
</svg>
