<?xml version="1.0" encoding="utf-8"?>
<!-- Generator: Adobe Illustrator 16.0.0, SVG Export Plug-In . SVG Version: 6.00 Build 0)  -->
<!DOCTYPE svg PUBLIC "-//W3C//DTD SVG 1.1//EN" "http://www.w3.org/Graphics/SVG/1.1/DTD/svg11.dtd">
<svg version="1.1" id="Layer_2" xmlns="http://www.w3.org/2000/svg" xmlns:xlink="http://www.w3.org/1999/xlink" x="0px" y="0px"
	 width="80px" height="80px" viewBox="0 0 80 80" enable-background="new 0 0 80 80" xml:space="preserve">
<g>
	<path fill="#FF639F" d="M65.939,47.329c-1.885-2.94-4.485-4.999-7.854-6.072c-0.483-0.151-0.765-0.368-0.758-0.966
		c0.047-5.552,0.035-11.068,0.047-16.597c0-0.682-0.18-1.202-0.688-1.659c-0.556-0.493-1.024-1.01-1.528-1.522
		c-2.698-2.711-5.375-5.43-8.074-8.106c-0.247-0.242-0.665-0.383-1.011-0.383c-8.117-0.03-16.231-0.022-24.332-0.021
		c-0.906,0-1.596,0.702-1.596,1.608c-0.001,7.875-0.001,15.757-0.001,23.638c0,7.803,0,15.62,0,23.438
		c0,1.221,0.464,1.688,1.705,1.687c6.066-0.01,12.128-0.01,18.19-0.044c0.493,0,0.739,0.175,1.002,0.566
		c2.963,4.636,7.269,6.89,12.707,7.101c0.667,0.037,1.343-0.189,2.011-0.288c1.807-0.242,3.485-0.865,5.071-1.771
		c4.532-2.64,6.792-6.74,7.511-11.783c0.136-0.925-0.146-1.923-0.242-2.869C67.871,51.117,67.118,49.141,65.939,47.329z
		 M47.506,16.556c0-0.101,0.045-0.199,0.053-0.227c1.885,1.869,3.811,3.738,5.851,5.722c-0.507,0-0.848,0-1.198,0
		c-1.374,0-2.748,0-4.121,0.015c-0.346,0.005-0.627-0.011-0.625-0.489C47.506,19.897,47.49,18.241,47.506,16.556z M39.088,52.467
		c-0.464,2.484-0.407,4.989,0.556,7.379c0,0.048-0.012,0.104-0.054,0.274c-0.258,0-0.513,0-0.755,0c-5.161,0-10.321-0.017-15.482,0
		c-0.567,0-0.705-0.17-0.705-0.716c0.012-14.734,0.015-29.467,0-44.202c0-0.587,0.215-0.712,0.776-0.71
		c7.042,0.018,14.067,0.006,21.115-0.033c0.555,0,0.712,0.156,0.712,0.699c-0.021,2.561,0,5.121,0,7.682
		c0,1.066,0.397,1.461,1.465,1.467c2.561,0.01,5.106,0.01,7.658,0.01c0.463,0,0.67,0.093,0.667,0.607
		c-0.021,5.002-0.01,10.042,0.006,15.049c0.002,0.417-0.052,0.636-0.566,0.604c-3.958-0.286-7.469,0.906-10.476,3.452
		C41.391,46.264,39.721,49.086,39.088,52.467z M53.468,67.54c-6.806-0.013-12.359-5.712-12.352-12.406
		c0-6.9,5.765-12.493,12.406-12.349c6.799-0.088,12.368,5.64,12.352,12.406C65.872,61.982,60.265,67.541,53.468,67.54z"/>
	<path fill="#FF639F" d="M27.117,28.897c3.9-0.011,7.801-0.005,11.702-0.005c0-0.004,0-0.008,0-0.011
		c3.826,0,7.678,0.006,11.505-0.011c0.295-0.002,0.609-0.023,0.873-0.152c0.523-0.289,0.598-0.834,0.42-1.344
		c-0.188-0.509-0.642-0.735-1.208-0.735c-7.755,0-15.477,0-23.229,0c-0.171,0-0.382,0.018-0.529,0.11
		c-0.501,0.229-0.785,0.645-0.662,1.24C26.104,28.57,26.472,28.899,27.117,28.897z"/>
	<path fill="#FF639F" d="M50.576,32.587c-0.186,0-0.384,0-0.566,0c-7.461,0-14.906,0-22.376-0.006c-0.251,0-0.562-0.069-0.745,0.035
		c-0.332,0.175-0.729,0.424-0.841,0.708c-0.103,0.325,0,0.849,0.227,1.075c0.26,0.241,0.735,0.358,1.133,0.362
		c3.795,0.035,7.612,0.026,11.435,0.026c0-0.013,0-0.026,0-0.04c1.418,0,2.836-0.002,4.254,0.001
		c2.482,0.005,4.965,0.025,7.445,0.013c0.715-0.004,1.114-0.374,1.119-1.042C51.691,33.016,51.316,32.645,50.576,32.587z"/>
	<path fill="#FF639F" d="M47.063,39.83c0.513-0.304,0.542-0.842,0.353-1.295c-0.204-0.558-0.701-0.737-1.314-0.737
		c-6.231,0.006-12.488,0-18.752,0c-0.849,0-1.359,0.45-1.38,1.134c-0.026,0.693,0.474,1.111,1.354,1.112
		c3.112,0.005,6.224,0.001,9.337,0.001c0-0.003,0-0.006,0-0.01c3.19,0,6.381,0.009,9.555-0.016
		C46.497,40.018,46.824,39.951,47.063,39.83z"/>
	<path fill="#FF639F" d="M39.247,43.108c-1.983-0.015-3.983-0.005-5.991-0.005c0-0.004,0-0.006,0-0.01
		c-2.007,0-4.036-0.024-6.061,0.029c-0.373,0.002-0.911,0.336-1.091,0.652c-0.148,0.303-0.05,0.898,0.174,1.172
		c0.223,0.274,0.731,0.388,1.129,0.388c2.616,0.019,5.255,0,7.874,0c1.356,0,2.695,0.001,4.032,0
		c0.741-0.005,1.166-0.397,1.184-1.01C40.55,43.576,40.097,43.114,39.247,43.108z"/>
	<path fill="#FF639F" d="M35.782,48.376c-1.419-0.019-2.837-0.005-4.256-0.005c0-0.009,0-0.017,0-0.023
		c-1.458,0-2.878-0.011-4.335,0.012c-1.005,0.034-1.601,0.987-1.033,1.714c0.229,0.31,0.796,0.529,1.244,0.554
		c1.42,0.072,2.874,0.033,4.31,0.032c1.359-0.005,2.702,0.001,4.042-0.016c0.94-0.025,1.397-0.551,1.283-1.344
		C36.958,48.733,36.516,48.385,35.782,48.376z"/>
	<path fill="#FF639F" d="M60.927,49.673c-0.48-0.43-1.001-0.43-1.511,0.012c-0.171,0.161-0.341,0.352-0.511,0.553
		c-2.103,2.496-4.242,4.983-6.339,7.502c-0.345,0.398-0.571,0.453-0.992,0.101c-1.249-1.049-2.524-2.026-3.816-3.046
		c-0.694-0.551-1.329-0.534-1.77,0.002c-0.463,0.604-0.397,1.142,0.34,1.749c1.725,1.389,3.468,2.78,5.214,4.142
		c0.199,0.157,0.453,0.227,0.793,0.396c0.349-0.263,0.765-0.465,1.04-0.793c1.885-2.179,3.725-4.373,5.587-6.571
		c0.736-0.851,1.473-1.699,2.152-2.563C61.511,50.613,61.399,50.104,60.927,49.673z"/>
</g>
</svg>
