<?xml version="1.0" encoding="utf-8"?>
<!-- Generator: Adobe Illustrator 16.0.0, SVG Export Plug-In . SVG Version: 6.00 Build 0)  -->
<!DOCTYPE svg PUBLIC "-//W3C//DTD SVG 1.1//EN" "http://www.w3.org/Graphics/SVG/1.1/DTD/svg11.dtd">
<svg version="1.1" id="Layer_2" xmlns="http://www.w3.org/2000/svg" xmlns:xlink="http://www.w3.org/1999/xlink" x="0px" y="0px"
	 width="80px" height="80px" viewBox="0 0 80 80" enable-background="new 0 0 80 80" xml:space="preserve">
<g>
	<path fill="#FF639F" d="M67.275,30.458c-0.419-0.276-0.767-0.7-1.377-0.691c-1.012,0.017-2.027-0.029-3.033-0.11
		c-4.747-0.397-9.507-0.688-14.262-0.989c-0.363-0.02-0.59-0.157-0.725-0.477c-0.287-0.713-0.572-1.426-0.863-2.139
		c-0.448-1.123-0.892-2.247-1.347-3.367c-0.464-1.137-0.941-2.266-1.397-3.405c-0.446-1.121-0.871-2.253-1.318-3.376
		c-0.492-1.241-1.02-2.467-1.48-3.72c-0.294-0.787-0.599-1.071-1.431-1.071c-0.263,0.042-0.723-0.15-0.846,0.079
		c-0.18,0.354-0.448,0.664-0.588,1.041c-0.433,1.15-0.839,2.309-1.318,3.438c-0.233,0.538-0.431,1.092-0.653,1.631
		c-0.485,1.167-0.959,2.335-1.432,3.507c-0.465,1.138-0.913,2.278-1.369,3.418c-0.485,1.205-0.997,2.399-1.436,3.621
		c-0.196,0.548-0.468,0.818-1.063,0.832c-1.415,0.018-2.827,0.142-4.239,0.25c-4.131,0.307-8.262,0.594-12.393,0.824
		c-0.797,0.043-1.389,0.314-1.953,0.785c-0.151,0.131-0.147,1.07,0.002,1.201c1.683,1.414,3.359,2.833,5.049,4.236
		c2.95,2.465,5.903,4.917,8.859,7.372c0.26,0.221,0.426,0.485,0.352,0.822c-0.111,0.52-0.189,1.041-0.34,1.557
		c-0.322,1.094-0.615,2.191-0.845,3.303c-0.215,1.027-0.504,2.035-0.763,3.044c-0.199,0.763-0.289,1.56-0.558,2.3
		c-0.393,1.053-0.552,2.166-0.856,3.244c-0.344,1.212-0.584,2.461-0.974,3.664c-0.226,0.685,0.215,1.109,0.493,1.603
		c0.172,0.304,0.49,0.136,0.739,0.145c0.285,0.01,0.674,0.15,0.837-0.084c0.289-0.416,0.729-0.583,1.107-0.837
		c1.036-0.697,2.103-1.342,3.156-2.007c1.334-0.835,2.666-1.671,4-2.509c1.008-0.633,2.018-1.267,3.025-1.904
		c1.236-0.784,2.472-1.576,3.708-2.358c0.203-0.126,0.45-0.144,0.62,0.016c0.305,0.282,0.685,0.438,1.021,0.653
		c1.298,0.836,2.597,1.653,3.902,2.471c1.319,0.822,2.649,1.636,3.968,2.462c1.382,0.865,2.759,1.741,4.133,2.618
		c0.646,0.411,1.292,0.825,1.919,1.271c0.205,0.146,1.383,0.323,1.566,0.166c0.555-0.471,0.758-1.188,0.487-1.939
		c-0.21-0.574-0.301-1.174-0.47-1.752c-0.273-0.937-0.47-1.89-0.72-2.826c-0.286-1.082-0.621-2.157-0.842-3.247
		c-0.217-1.063-0.522-2.108-0.793-3.149c-0.208-0.803-0.333-1.618-0.571-2.414c-0.327-1.085-0.599-2.194-0.88-3.295
		c-0.098-0.383-0.001-0.72,0.322-0.985c0.953-0.779,1.895-1.575,2.84-2.36c1.92-1.605,3.839-3.208,5.753-4.811
		c1.662-1.398,3.359-2.743,5.008-4.157c0.271-0.235,0.338-0.407,0.329-0.698C67.328,31.04,67.426,30.549,67.275,30.458z
		 M62.275,32.705c-1.272,0.938-2.427,2.026-3.642,3.037c-2.389,1.988-4.772,3.978-7.161,5.963c-0.341,0.287-0.688,0.55-0.964,0.903
		c-0.32,0.405-0.341,0.813-0.205,1.29c0.326,1.188,0.617,2.377,0.926,3.57c0.291,1.095,0.56,2.201,0.878,3.293
		c0.237,0.83,0.42,1.68,0.612,2.513c0.249,1.07,0.643,2.112,0.768,3.211c0.07,0.628,0.46,1.167,0.486,1.81
		c0.008,0.145,0.079,0.313-0.048,0.416c-0.142,0.117-0.274-0.01-0.396-0.088c-1.09-0.675-2.181-1.35-3.269-2.035
		c-1.022-0.637-2.046-1.285-3.069-1.932C45.872,53.83,44.554,53,43.232,52.17c-0.9-0.563-1.801-1.132-2.716-1.676
		c-0.688-0.407-1.207,0.14-1.705,0.442c-1.745,1.052-3.449,2.153-5.164,3.245c-1.6,1.012-3.19,2.029-4.783,3.039
		c-0.803,0.511-1.613,1.012-2.422,1.52c-0.094,0.059-0.183,0.14-0.299,0.069c-0.109-0.067-0.099-0.188-0.09-0.297
		c0.03-0.372,0.258-0.698,0.315-1.055c0.177-1.088,0.546-2.134,0.777-3.21c0.23-1.09,0.517-2.178,0.846-3.246
		c0.238-0.772,0.352-1.575,0.564-2.353c0.278-1.045,0.628-2.076,0.787-3.147c0.062-0.405,0.198-0.787,0.343-1.163
		c0.383-1.03,0.188-1.629-0.649-2.326c-3.262-2.71-6.515-5.443-9.775-8.167c-0.466-0.383-0.946-0.758-1.418-1.136
		c-0.126-0.101-0.316-0.195-0.243-0.389c0.064-0.177,0.265-0.156,0.431-0.167c3.58-0.264,7.156-0.513,10.741-0.716
		c1.376-0.082,2.746-0.3,4.126-0.303c0.701-0.002,1.109-0.44,1.337-0.982c0.639-1.52,1.194-3.076,1.808-4.604
		c0.642-1.597,1.324-3.175,1.97-4.772c0.608-1.514,1.181-3.039,1.776-4.558c0.051-0.128,0.05-0.318,0.245-0.311
		c0.147,0.005,0.19,0.153,0.238,0.272c0.341,0.85,0.677,1.704,1.02,2.553c0.463,1.136,0.915,2.276,1.4,3.404
		c0.238,0.555,0.429,1.128,0.665,1.687c0.663,1.568,1.195,3.193,1.876,4.752c0.305,0.691,0.433,1.482,0.972,2.082
		c0.257,0.278,0.52,0.435,0.895,0.47c4.748,0.382,9.513,0.551,14.26,1.011c0.238,0.02,0.479,0.012,0.72,0.018
		c0.161,0.004,0.364-0.021,0.435,0.156C62.593,32.511,62.399,32.61,62.275,32.705z"/>
</g>
</svg>
