<?xml version="1.0" encoding="utf-8"?>
<!-- Generator: Adobe Illustrator 16.0.0, SVG Export Plug-In . SVG Version: 6.00 Build 0)  -->
<!DOCTYPE svg PUBLIC "-//W3C//DTD SVG 1.1//EN" "http://www.w3.org/Graphics/SVG/1.1/DTD/svg11.dtd">
<svg version="1.1" id="Layer_3" xmlns="http://www.w3.org/2000/svg" xmlns:xlink="http://www.w3.org/1999/xlink" x="0px" y="0px"
	 width="80px" height="80px" viewBox="0 0 80 80" enable-background="new 0 0 80 80" xml:space="preserve">
<g>
	<path fill="#FF639F" d="M65.919,33.85c-0.037-0.935-0.278-1.875-0.432-2.807c-0.014-0.063-0.048-0.137-0.079-0.196
		c-0.921-1.696-2.287-2.626-4.283-2.574c-2.313,0.07-4.626,0.071-6.939,0.089c-0.182,0.001-0.365-0.021-0.545-0.043
		c0.224-0.313,0.475-0.518,0.749-0.682c1.2-0.747,2.487-1.376,3.603-2.232c1.73-1.323,3.265-2.843,4.074-4.969
		c0.747-1.961,0.59-3.857-0.283-5.691c-0.701-1.468-1.721-2.735-3.019-3.717c-0.634-0.486-1.372-1.092-2.089-1.133
		c-1.238-0.07-2.516-0.348-3.771,0.271c-1.012,0.498-1.945,1.033-2.6,1.949c-0.607,0.855-1.11,1.78-1.709,2.639
		c-1.668,2.379-3.365,4.73-5.045,7.102c-0.277,0.393-0.624,0.446-1.092,0.424c-1.749-0.053-3.501-0.076-5.249-0.008
		c-0.567,0.031-0.928-0.092-1.253-0.514c-0.635-0.831-1.331-1.631-1.919-2.496c-1.323-1.961-2.615-3.938-3.887-5.924
		c-0.772-1.215-1.659-2.295-2.968-2.961c-0.389-0.201-0.811-0.541-1.198-0.512c-1.236,0.068-2.526-0.406-3.706,0.331
		c-0.499,0.321-1.061,0.542-1.529,0.892c-1.026,0.759-1.833,1.73-2.483,2.816c-0.684,1.15-1.191,2.361-1.246,3.74
		c-0.093,2.293,0.899,4.118,2.373,5.75c1.4,1.555,3.038,2.786,4.886,3.756c0.581,0.304,1.136,0.654,1.702,0.99
		c-0.022,0.068-0.044,0.148-0.065,0.217c-0.235,0-0.469,0.002-0.704,0c-2.264-0.018-4.526-0.037-6.787-0.084
		c-1.542-0.024-2.801,0.5-3.74,1.75c-0.412,0.549-0.696,1.08-0.692,1.842c0.034,8.745,0.022,17.502,0.025,26.247
		c0,0.413,0.068,0.765,0.309,1.173c1.022,1.766,2.67,2.367,4.505,2.436c2.145,0.091,4.303-0.143,6.439-0.146
		c10.646-0.021,21.301-0.316,31.945,0.159c0.997,0.046,2.004-0.044,2.996,0.032c0.946,0.063,1.785-0.381,2.697-0.439
		c0.067-0.004,0.135-0.047,0.195-0.071c1.952-0.944,2.768-2.669,2.807-4.659c0.05-2.646-0.006-5.296-0.137-7.959
		c-0.152-3.109-0.23-6.247,0.117-9.369C66.092,37.484,65.983,35.658,65.919,33.85z M25.888,25.529
		c-1.51-0.674-2.843-1.639-4.037-2.787c-1.249-1.195-2.212-2.566-2.498-4.328c-0.025-0.154-0.024-0.312-0.044-0.577
		c0.102-1.422,0.752-2.721,1.75-3.845c0.655-0.729,1.373-1.337,2.336-1.719c1.093-0.42,3.303,0.178,4.013,1.17
		c0.737,1.047,1.39,2.152,2.135,3.182c1.629,2.248,3.297,4.475,4.949,6.711c0.081,0.109,0.245,0.21,0.25,0.333
		c0.019,0.255-0.042,0.515-0.068,0.771c-0.21-0.063-0.489-0.076-0.622-0.208c-1.488-1.562-2.931-3.153-4.422-4.707
		c-0.9-0.924-1.82-1.838-2.814-2.654c-1.005-0.82-2.31-0.695-3.254,0.176c-0.891,0.834-1.026,2.189-0.445,3.277
		c0.734,1.366,1.946,2.203,3.188,2.969c1.509,0.94,3.102,1.754,4.696,2.537c0.966,0.486,2,0.813,3.001,1.238
		c0.202,0.076,0.43,0.213,0.532,0.383c0.098,0.176,0.103,0.443,0.035,0.635c-0.029,0.076-0.337,0.125-0.504,0.101
		c-1.269-0.251-2.569-0.423-3.788-0.829C28.778,26.869,27.335,26.18,25.888,25.529z M29.058,22.297
		c-0.296-0.065-0.461-0.045-0.579-0.123c-1.168-0.732-2.362-1.44-3.248-2.543c-0.063-0.075-0.175-0.162-0.181-0.252
		c-0.008-0.221,0.026-0.455,0.045-0.677c0.229,0.02,0.507-0.029,0.679,0.094c0.372,0.253,0.714,0.563,1.029,0.884
		c0.676,0.693,1.331,1.402,1.979,2.112C28.877,21.893,28.923,22.031,29.058,22.297z M35.554,58.561c0,0.395-0.174,0.584-0.557,0.606
		c-0.26,0.008-0.527,0.002-0.788,0.001c-5.204-0.018-10.408-0.026-15.613-0.041c-0.551-0.002-1.121,0.061-1.59-0.371
		c-0.482-0.451-0.799-0.951-0.799-1.646c0-2.411-0.023-4.834-0.028-7.256c-0.001-0.615,0.128-0.695,0.746-0.693
		c2.963,0.006,5.925,0.002,8.884,0.002c0-0.027,0-0.043,0-0.071c2.963,0,5.921,0,8.884-0.001c0.715,0,0.896,0.176,0.893,0.849
		C35.577,52.816,35.559,55.684,35.554,58.561z M35.589,45.879c0.019,0.793-0.106,0.927-0.88,0.925
		c-5.275-0.013-10.551-0.024-15.824-0.049c-0.699-0.001-1.403-0.015-2.099,0.016c-0.433,0.015-0.625-0.169-0.625-0.581
		c0-0.873-0.001-1.745,0.007-2.629c0.006-0.375,0.136-0.615,0.594-0.613c3.029,0.021,6.059,0.017,9.092,0.017
		c0-0.026,0-0.04,0-0.065c2.944,0,5.888,0.014,8.831-0.001c0.761-0.001,0.921,0.173,0.913,0.937
		C35.584,44.512,35.579,45.201,35.589,45.879z M35.6,39.695c-0.001,0.838-0.14,0.986-0.968,0.985
		c-2.944-0.004-5.888-0.001-8.832-0.001c0-0.026,0-0.041,0-0.066c-3.016,0-6.031-0.006-9.04,0.018
		c-0.505,0.002-0.587-0.291-0.587-0.681c0-0.769,0.012-1.538,0.013-2.306c0.003-1.602-0.002-3.191,0.005-4.781
		c0.011-1.494,0.701-2.229,2.165-2.239c5.484-0.048,10.968-0.082,16.454-0.116c0.702-0.004,0.841,0.184,0.83,0.889
		C35.616,34.159,35.604,36.934,35.6,39.695z M41.776,46.539c-0.02,3.789-0.052,7.568-0.046,11.357
		c0.002,1.279,0.115,1.295-1.334,1.281c-0.632-0.006-1.264-0.008-1.895,0.004c-0.454,0.008-0.617-0.2-0.617-0.645
		c0.005-4.547,0.003-9.105,0.003-13.664c-0.029,0-0.064,0-0.094,0c0-4.533,0-9.066-0.001-13.612c0-0.569,0.172-0.759,0.744-0.761
		c0.859-0.002,1.719-0.008,2.579,0.004c0.551,0.02,0.734,0.227,0.732,0.742C41.824,36.34,41.801,41.445,41.776,46.539z
		 M42.834,27.188c-0.039,0.721-0.482,1.18-1.208,1.204c-1.223,0.021-2.446,0.021-3.674-0.001c-0.747-0.025-1.154-0.446-1.183-1.2
		c-0.024-0.623-0.029-1.263,0.023-1.885c0.059-0.721,0.329-0.949,1.05-0.961c0.65-0.011,1.294-0.002,1.945-0.002v0.002
		c0.644,0,1.294-0.01,1.938,0.003c0.718,0.016,1.059,0.336,1.1,1.059C42.865,26.004,42.861,26.592,42.834,27.188z M44.979,23.445
		c2.083-2.364,3.863-4.957,5.564-7.617c0.454-0.705,0.903-1.42,1.407-2.087c1.46-1.944,4.196-2.198,6.002-0.368
		c0.894,0.907,1.647,1.918,2.052,3.137c0.156,0.469,0.178,0.984,0.258,1.484c-0.034,1.644-0.889,2.904-1.883,4.074
		c-1.009,1.191-2.226,2.133-3.597,2.866c-1.247,0.661-2.491,1.345-3.8,1.853c-1.773,0.691-3.615,1.217-5.525,1.403
		c-0.461,0.046-0.662-0.249-0.435-0.653c0.098-0.18,0.262-0.35,0.438-0.431c0.963-0.41,1.954-0.745,2.901-1.187
		c1.159-0.525,2.31-1.08,3.418-1.717c0.997-0.566,1.966-1.198,2.891-1.891c1.047-0.779,1.962-1.69,2.128-3.106
		c0.131-1.131-0.378-1.967-1.268-2.532c-0.858-0.549-1.779-0.416-2.64,0.093c-1.233,0.724-2.094,1.841-3.039,2.868
		c-1.382,1.51-2.796,2.99-4.208,4.472c-0.206,0.226-0.482,0.556-0.791,0.276C44.549,24.094,44.725,23.74,44.979,23.445z
		 M50.578,22.143c0.085-0.141,0.153-0.297,0.262-0.416c0.914-0.934,1.834-1.86,2.76-2.795c0.094-0.088,0.21-0.215,0.334-0.232
		c0.167-0.037,0.414-0.048,0.517,0.05c0.104,0.099,0.158,0.376,0.094,0.509c-0.158,0.303-0.356,0.617-0.622,0.824
		c-0.9,0.709-1.835,1.377-2.77,2.046c-0.125,0.093-0.309,0.098-0.465,0.145C50.648,22.225,50.613,22.178,50.578,22.143z
		 M43.955,31.252c-0.003-0.561,0.191-0.75,0.822-0.747c5.048,0.034,10.096,0.069,15.139,0.095c0.616,0.004,1.23,0.004,1.84,0.059
		c0.905,0.086,1.555,0.8,1.563,1.742c0.02,2.215,0.016,4.443,0.02,6.67c0.001,0.338,0.018,0.664,0.009,1.002
		c-0.011,0.377-0.203,0.557-0.601,0.557c-3.016-0.018-6.031-0.016-9.041-0.016c0,0.027,0,0.043,0,0.07c-2.963,0-5.922-0.002-8.884,0
		c-0.63,0-0.815-0.186-0.817-0.81C43.986,36.996,43.968,34.13,43.955,31.252z M63.29,57.512c-0.008,0.711-0.812,1.516-1.524,1.575
		c-0.505,0.045-1.016,0.041-1.522,0.042c-5.133,0.012-10.265,0.029-15.397,0.043c-0.713,0.001-0.779-0.099-0.779-0.84
		c-0.002-2.724-0.021-5.459-0.047-8.193c-0.006-0.943,0.1-1.047,1.049-1.045c2.886,0.02,5.777,0.015,8.67,0.015
		c0,0.011,0,0.021,0,0.03c2.995,0,5.991,0.004,8.986-0.003c0.432-0.001,0.618,0.199,0.616,0.601
		C63.332,52.328,63.328,54.92,63.29,57.512z M63.359,46.215c0,0.426-0.244,0.558-0.647,0.556c-2.994-0.019-5.989-0.015-8.983-0.015
		c0,0.024,0,0.037,0,0.05c-2.982,0-5.959-0.001-8.935,0.001c-0.638,0-0.8-0.167-0.787-0.816c0.007-0.769-0.003-1.537-0.001-2.306
		c0.002-0.597,0.201-0.79,0.791-0.789c5.973,0.027,11.944,0.044,17.92,0.054c0.418,0,0.633,0.176,0.637,0.584
		C63.361,44.419,63.36,45.316,63.359,46.215z"/>
</g>
</svg>
