<?xml version="1.0" encoding="utf-8"?>
<!-- Generator: Adobe Illustrator 16.0.0, SVG Export Plug-In . SVG Version: 6.00 Build 0)  -->
<!DOCTYPE svg PUBLIC "-//W3C//DTD SVG 1.1//EN" "http://www.w3.org/Graphics/SVG/1.1/DTD/svg11.dtd">
<svg version="1.1" id="Layer_1" xmlns="http://www.w3.org/2000/svg" xmlns:xlink="http://www.w3.org/1999/xlink" x="0px" y="0px"
	 width="80px" height="80px" viewBox="0 0 80 80" enable-background="new 0 0 80 80" xml:space="preserve">
<g>
	<path fill="#FF639F" d="M68.898,43.809c-0.42-0.272-0.984-0.445-1.486-0.445c-9.134-0.025-18.274-0.021-27.407-0.021
		c0-0.004,0-0.004,0-0.005c-9.14,0-18.273,0-27.412,0.001c-0.218,0-0.442,0-0.662,0.023c-0.732,0.063-1.132,0.59-1.375,1.172
		c-0.231,0.544,0.083,1.029,0.459,1.447c0.491,0.547,1.133,0.496,1.777,0.496c18.175-0.002,36.346-0.003,54.522-0.008
		c0.248,0,0.492,0,0.735-0.02c0.736-0.061,1.134-0.601,1.385-1.176C69.682,44.697,69.376,44.113,68.898,43.809z"/>
	<path fill="#FF639F" d="M23.003,20.508c0.014,4.96,0.022,9.92,0.03,14.88c0,0.194,0.023,0.381,0.038,0.645
		c0.275,0.016,0.466,0.031,0.662,0.031c4.912-0.001,9.82-0.014,14.729,0.013c0.669,0.005,0.813-0.202,0.813-0.835
		c-0.023-4.908-0.001-9.82,0-14.732c0-0.21-0.028-0.42-0.047-0.617c-0.138-0.028-0.211-0.058-0.279-0.058
		c-5.132-0.013-10.264-0.015-15.392-0.036C22.995,19.796,23.003,20.105,23.003,20.508z M25.993,28.025c0.004,0,0.008,0,0.013,0
		c0-1.521,0.012-3.042-0.012-4.569c-0.008-0.477,0.149-0.657,0.63-0.657c3.025,0.012,6.043,0.009,9.065-0.007
		c0.493-0.004,0.633,0.187,0.631,0.655c-0.018,3.018-0.015,6.043,0.002,9.061c0,0.438-0.128,0.613-0.586,0.61
		c-3.05-0.013-6.091-0.013-9.141,0c-0.507,0.003-0.611-0.224-0.609-0.673C26.007,30.972,25.993,29.498,25.993,28.025z"/>
	<path fill="#FF639F" d="M15.572,29.309c0.014,0,0.024,0,0.036,0c0,0.609,0,1.226,0,1.843c0.003,2.923,0.01,5.846,0.008,8.769
		c-0.001,0.681,0.283,1.158,0.899,1.466c0.556,0.285,1.048,0.158,1.521-0.159c0.554-0.374,0.619-0.941,0.62-1.556
		c0.003-6.538,0.001-13.074,0.056-19.608c0.008-0.83,0.176-1.731,0.528-2.477c0.797-1.672,2.282-2.344,4.093-2.347
		c4.053-0.006,8.11-0.011,12.165-0.02c0.342-0.001,0.69-0.018,1.025-0.071c0.819-0.131,1.36-0.867,1.275-1.689
		c-0.079-0.724-0.843-1.426-1.556-1.426c-4.4-0.001-8.797-0.018-13.194,0.011c-0.678,0.005-1.372,0.155-2.035,0.332
		c-3.038,0.798-5.572,3.8-5.46,7.57C15.646,23.062,15.572,26.186,15.572,29.309z"/>
	<path fill="#FF639F" d="M44.303,15.223c4.076,0.004,8.156-0.014,12.234,0.033c0.765,0.009,1.592,0.132,2.277,0.446
		c1.8,0.827,2.494,2.391,2.499,4.308c0.01,6.533,0.023,13.07,0.047,19.608c0.002,0.375,0.019,0.807,0.194,1.126
		c0.325,0.605,0.898,0.906,1.608,0.756c0.735-0.154,1.194-0.745,1.198-1.544c0.012-3.539,0.006-7.078,0.006-10.616
		c0.016,0,0.035,0,0.052,0c0-3.168-0.024-6.334,0.01-9.504c0.022-2.01-0.595-3.762-1.922-5.252
		c-1.239-1.394-2.825-2.441-4.644-2.499c-4.715-0.156-9.435-0.043-14.15-0.066c-0.748-0.004-1.165,0.462-1.348,0.998
		c-0.147,0.442-0.063,1.058,0.135,1.498C42.834,15.242,43.604,15.221,44.303,15.223z"/>
	<path fill="#FF639F" d="M35.782,62.781c-4.102-0.002-8.208,0.019-12.307-0.027c-0.765-0.007-1.591-0.133-2.282-0.441
		c-1.716-0.773-2.468-2.236-2.489-4.079c-0.032-2.655-0.024-5.307-0.05-7.96c-0.001-0.359-0.028-0.754-0.183-1.063
		c-0.321-0.656-1.058-0.935-1.748-0.752c-0.679,0.18-1.105,0.736-1.112,1.547c-0.02,2.898-0.037,5.797-0.029,8.695
		c0.006,1.852,0.696,3.467,1.956,4.783c1.474,1.539,3.247,2.533,5.471,2.508c2.065-0.024,4.131-0.004,6.192-0.004
		c2.358,0,4.72-0.022,7.075,0.012c0.755,0.012,1.153-0.455,1.353-0.994c0.15-0.421,0.09-1.012-0.089-1.439
		C37.235,62.824,36.488,62.782,35.782,62.781z"/>
	<path fill="#FF639F" d="M64.16,49.162c-0.367-0.615-1.047-0.87-1.713-0.692c-0.661,0.177-1.09,0.723-1.097,1.466
		c-0.019,2.705,0.016,5.404-0.062,8.107c-0.022,0.805-0.197,1.673-0.547,2.398c-0.82,1.701-2.34,2.338-4.171,2.337
		c-4.056-0.003-8.106,0.001-12.157,0.009c-0.341,0.002-0.689,0.017-1.025,0.084c-0.789,0.152-1.283,0.86-1.203,1.672
		c0.069,0.738,0.818,1.445,1.541,1.445c2.354,0.001,4.715,0,7.072,0c1.693,0,3.391,0.016,5.086-0.005
		c1.129-0.017,2.226,0.022,3.361-0.364c2.635-0.9,5.003-3.574,5.102-6.342c0.107-3.141,0.027-6.287,0.011-9.428
		C64.357,49.614,64.276,49.359,64.16,49.162z"/>
	<path fill="#FF639F" d="M52.679,29.838c-3.384,0.029-6.772,0.036-10.161,0.012c-0.621-0.006-0.801,0.198-0.796,0.801
		c0.021,3.431,0.026,6.869,0.005,10.306c0,0.56,0.194,0.718,0.729,0.716c1.719-0.024,3.438-0.012,5.152-0.012
		c0,0.003,0,0.006,0,0.008c1.717,0,3.436-0.02,5.154,0.006c0.602,0.012,0.809-0.184,0.806-0.803
		c-0.026-3.389-0.026-6.772,0.006-10.162C53.582,30.02,53.34,29.836,52.679,29.838z M50.562,38.156
		c-0.004,0.193-0.377,0.525-0.587,0.533c-1.574,0.043-3.146,0.016-4.715,0.031c-0.475,0.002-0.58-0.235-0.574-0.651
		c0.021-0.784,0.007-1.569,0.007-2.354c0.002,0,0.005,0,0.007,0c0-0.763,0.008-1.527-0.004-2.29
		c-0.01-0.424,0.157-0.617,0.609-0.611c1.545,0.013,3.094,0.007,4.645,0.001c0.432,0,0.628,0.202,0.629,0.625
		C50.58,35.011,50.605,36.587,50.562,38.156z"/>
	<path fill="#FF639F" d="M46.801,51.698c2.086-0.001,2.086-0.001,2.044,2.104c-0.001,0.049,0.021,0.113-0.004,0.141
		c-0.164,0.182-0.321,0.494-0.509,0.515c-1.506,0.165-1.509,0.146-1.516,1.696c-0.002,0.198,0.019,0.396-0.01,0.59
		c-0.08,0.564,0.174,0.729,0.711,0.725c1.696-0.022,3.387-0.008,5.084-0.008c0,0.005,0,0.009,0,0.012
		c1.722,0,3.441-0.01,5.159,0.006c0.502,0.006,0.685-0.163,0.678-0.688c-0.028-1.961,0.001-3.931-0.02-5.893
		c-0.007-0.75,0.185-1.797-0.213-2.16c-0.423-0.39-1.443-0.108-2.196-0.155c-0.525-0.034-0.678,0.177-0.672,0.687
		c0.024,1.498-0.021,2.996,0.019,4.492c0.011,0.572-0.205,0.734-0.728,0.719c-0.688-0.023-1.377-0.025-2.063,0.005
		c-0.545,0.022-0.717-0.17-0.705-0.731c0.038-1.449,0.002-2.9-0.01-4.351c-0.002-0.374-0.006-0.743-0.562-0.741
		c-3.074,0.014-6.142,0.021-9.216,0.021c-0.443,0-0.611,0.211-0.606,0.635c0.015,0.537,0.03,1.083-0.005,1.617
		c-0.035,0.578,0.188,0.787,0.766,0.775C43.757,51.683,45.279,51.698,46.801,51.698z"/>
	<path fill="#FF639F" d="M39.087,54.477c-3.805-0.002-7.609-0.004-11.413-0.008c-1.664-0.001-1.664-0.002-1.665-1.663
		c0-1.139,0-2.284,0-3.455c-1.042,0-1.963,0-3.004,0c0,2.473,0.028,4.85-0.018,7.226c-0.011,0.701,0.154,0.923,0.886,0.918
		c3.629-0.043,7.259-0.025,10.892-0.029c1.546-0.002,3.089,0.009,4.639-0.018c0.206-0.002,0.582-0.189,0.583-0.313
		c0.051-0.867,0.028-1.742,0.028-2.658C39.617,54.477,39.354,54.477,39.087,54.477z"/>
	<path fill="#FF639F" d="M57.711,19.796c-1.643,0.022-3.289,0.01-4.935,0.01c0,0.009,0,0.012,0,0.019
		c-1.692,0-3.389,0.015-5.085-0.006c-0.497-0.003-0.72,0.146-0.672,0.681c0.043,0.484,0.059,0.982,0.008,1.471
		c-0.062,0.64,0.144,0.854,0.811,0.845c2.232-0.039,4.466,0.004,6.703-0.016c0.571-0.003,0.835,0.119,0.817,0.78
		c-0.05,1.669-0.024,3.337,0.001,5.009c0.008,0.748-0.189,1.794,0.209,2.166c0.418,0.388,1.438,0.113,2.192,0.165
		c0.522,0.03,0.676-0.174,0.672-0.685c-0.017-3.242-0.019-6.484,0.009-9.726C58.443,19.939,58.235,19.79,57.711,19.796z"/>
	<path fill="#FF639F" d="M29.539,41.891c1.421-0.026,2.843-0.004,4.264-0.004c0-0.014,0-0.025,0-0.033
		c1.47,0,2.941-0.023,4.416,0.008c0.593,0.02,0.791-0.205,0.754-0.766c-0.033-0.515-0.029-1.03,0-1.547
		c0.029-0.53-0.225-0.672-0.708-0.67c-2.918,0.002-5.838,0.002-8.753-0.016c-0.491-0.003-0.736,0.162-0.72,0.677
		c0.017,0.542,0.016,1.081,0,1.62C28.778,41.691,28.991,41.903,29.539,41.891z"/>
	<path fill="#FF639F" d="M30.085,52.618c1.054-0.024,2.108-0.007,3.163-0.007c1.078,0,2.157-0.016,3.234,0.006
		c0.408,0.004,0.587-0.131,0.577-0.551c-0.022-0.636-0.026-1.274,0-1.912c0.011-0.419-0.159-0.556-0.567-0.553
		c-2.18,0.012-4.364,0.01-6.549-0.004c-0.447-0.002-0.61,0.184-0.598,0.62c0.017,0.56,0.027,1.13-0.007,1.69
		C29.307,52.467,29.565,52.629,30.085,52.618z"/>
	<path fill="#FF639F" d="M42.281,27.223c0.609-0.025,1.227-0.024,1.84,0c0.441,0.013,0.611-0.155,0.6-0.604
		c-0.021-1.003-0.009-2.008-0.009-3.013c0.007,0,0.014,0,0.021,0c0-1.03-0.025-2.061,0.006-3.088
		c0.021-0.507-0.133-0.724-0.654-0.698c-0.59,0.028-1.174,0.025-1.764,0c-0.505-0.021-0.686,0.162-0.672,0.686
		c0.039,2.033,0.053,4.068,0.051,6.104C41.697,27.045,41.826,27.238,42.281,27.223z"/>
	<path fill="#FF639F" d="M57.786,35.902c-0.612,0.011-1.235-0.044-1.837,0.034c-0.219,0.029-0.557,0.358-0.564,0.559
		c-0.053,1.098-0.025,2.202-0.02,3.308c0.004,0.406,0.191,0.633,0.632,0.626c2.835-0.073,2.379,0.481,2.42-2.221
		c0.001-0.024,0-0.048,0-0.072c0.002,0,0.003,0,0.003,0c0-0.519-0.012-1.031,0.002-1.549C58.441,36.138,58.26,35.901,57.786,35.902z
		"/>
	<path fill="#FF639F" d="M50.779,24.994c-1.053,0.021-2.105,0.025-3.158,0.002c-0.464-0.011-0.594,0.186-0.57,0.618
		c0.027,0.583,0.029,1.173,0.002,1.762c-0.025,0.46,0.172,0.604,0.607,0.584c0.129-0.008,0.258-0.013,0.385-0.015
		c0.383-0.005,0.773,0.007,1.157,0.007s0.774-0.012,1.157-0.006c0.127,0.002,0.256,0.006,0.386,0.013
		c0.427,0.016,0.634-0.124,0.61-0.586c-0.029-0.588-0.025-1.175,0.002-1.762C51.379,25.173,51.244,24.984,50.779,24.994z"/>
	<path fill="#FF639F" d="M24.875,37.955c-1.842-0.009-1.842-0.008-1.842,1.839c0,1.938,0,1.938,1.964,1.936
		c0.146,0,0.296-0.001,0.439,0.011c0.409,0.028,0.577-0.144,0.567-0.564c-0.02-0.686-0.014-1.372-0.012-2.058
		C25.996,37.767,26.057,37.958,24.875,37.955z"/>
	<path fill="#FF639F" d="M28.624,28.561c0.005,2.198,0.004,2.198,2.2,2.188c2.254-0.012,2.254-0.012,2.259-2.282
		c0-0.535,0.054-1.083-0.024-1.611c-0.033-0.226-0.329-0.578-0.524-0.584c-1.097-0.059-2.199-0.03-3.305-0.033
		c-0.423-0.001-0.627,0.196-0.611,0.631C28.629,27.436,28.623,27.995,28.624,28.561z"/>
	<path fill="#FF639F" d="M49.039,33.763c-0.956,0.013-1.909,0.016-2.867,0.006c-0.429-0.003-0.627,0.154-0.6,0.61
		c0.031,0.517,0.008,1.03,0.009,1.548c0.004,1.899,0.003,1.899,1.938,1.903c0.488,0,0.982-0.021,1.47,0.009
		c0.438,0.026,0.626-0.133,0.622-0.582c-0.013-0.982-0.006-1.962,0.006-2.939C49.627,33.897,49.437,33.755,49.039,33.763z"/>
</g>
</svg>
