<?xml version="1.0" encoding="utf-8"?>
<!-- Generator: Adobe Illustrator 16.0.0, SVG Export Plug-In . SVG Version: 6.00 Build 0)  -->
<!DOCTYPE svg PUBLIC "-//W3C//DTD SVG 1.1//EN" "http://www.w3.org/Graphics/SVG/1.1/DTD/svg11.dtd">
<svg version="1.1" id="belepes_x5F_A" xmlns="http://www.w3.org/2000/svg" xmlns:xlink="http://www.w3.org/1999/xlink" x="0px"
	 y="0px" width="44px" height="38px" viewBox="0 0 44 38" enable-background="new 0 0 44 38" xml:space="preserve">
<g>
	<path fill="#262339" d="M34.32,9.873c-0.43-0.43-0.855-0.863-1.282-1.296C32.035,7.558,31,6.504,29.94,5.52
		c-2.715-2.521-5.55-4-9.156-4.412c-0.779-0.089-1.555-0.134-2.305-0.134c-4.612,0-8.695,1.702-12.137,5.062
		C3.6,8.711,1.872,12.056,1.207,15.977c-0.183,1.078-0.257,2.064-0.226,3.015c0.032,4.819,1.668,9.004,4.865,12.45
		c2.755,2.971,6.103,4.771,9.951,5.353c1.018,0.153,2.025,0.231,2.997,0.231h0.001c4.476,0,8.087-1.65,11.458-4.889
		c2.456-2.357,4.893-4.822,7.249-7.206c1.048-1.06,2.097-2.12,3.149-3.175l2.053-2.068c0.429-0.432,0.43-0.988,0-1.417L34.32,9.873z
		"/>
	<path fill="#2E2942" d="M43.396,17.583L35.01,9.184c-0.428-0.428-0.853-0.859-1.277-1.291c-1.01-1.026-2.053-2.088-3.129-3.086
		c-2.87-2.667-5.892-4.23-9.708-4.667C15.023-0.533,9.878,1.223,5.662,5.338c-2.894,2.822-4.715,6.348-5.416,10.477
		c-0.194,1.143-0.272,2.192-0.238,3.197c0.033,5.057,1.757,9.463,5.124,13.093c2.908,3.137,6.448,5.038,10.52,5.653
		C16.717,37.918,17.774,38,18.794,38c0,0,0,0,0,0c4.736,0,8.574-1.743,12.135-5.16c2.465-2.367,4.905-4.836,7.266-7.225
		c1.047-1.059,2.094-2.117,3.146-3.171l2.054-2.069C44.201,19.564,44.201,18.389,43.396,17.583z M42.705,19.688l-2.053,2.068
		c-1.053,1.055-2.102,2.115-3.149,3.175c-2.356,2.384-4.793,4.849-7.249,7.206c-3.371,3.238-6.982,4.889-11.458,4.889h-0.001
		c-0.972,0-1.979-0.078-2.997-0.231c-3.849-0.581-7.196-2.382-9.951-5.353c-3.196-3.445-4.833-7.631-4.865-12.45
		c-0.031-0.95,0.042-1.937,0.226-3.015C1.872,12.056,3.6,8.711,6.343,6.036c3.442-3.359,7.525-5.062,12.137-5.062
		c0.75,0,1.525,0.045,2.305,0.134c3.606,0.412,6.441,1.891,9.156,4.412c1.06,0.984,2.095,2.038,3.098,3.057
		c0.427,0.433,0.853,0.866,1.282,1.296l8.385,8.397C43.135,18.7,43.134,19.256,42.705,19.688z"/>
</g>
<g>
	<path fill="#FF639F" d="M25.993,9C21.403,9,16.812,9,12.22,9c-1.062,0-1.527,0.473-1.528,1.551
		c-0.003,2.824-0.003,5.649-0.005,8.474c0.049,0.016,0.098,0.043,0.147,0.043c2.761,0.002,5.522,0.002,8.283,0.002
		c0.015-0.01,0.028-0.023,0.038-0.037c0.036-0.179-0.126-0.236-0.209-0.32c-1.098-1.107-2.204-2.21-3.307-3.313
		c-0.212-0.212-0.467-0.438-0.18-0.742c0.311-0.329,0.552-0.073,0.782,0.157c1.466,1.468,2.927,2.94,4.406,4.394
		c0.243,0.238,0.237,0.357-0.004,0.594c-1.48,1.453-2.943,2.924-4.407,4.394c-0.221,0.222-0.462,0.442-0.75,0.177
		c-0.332-0.306-0.066-0.552,0.163-0.779c1.177-1.171,2.354-2.343,3.622-3.604c-0.003-0.012-0.006-0.023-0.011-0.037
		c-0.004-0.01-0.01-0.02-0.015-0.029c-2.925,0-5.742,0-8.557,0c0.001,2.858,0.001,5.717,0.004,8.576
		c0.001,1.016,0.465,1.496,1.471,1.496c4.628,0.004,9.256,0.004,13.884,0c0.989-0.002,1.444-0.462,1.444-1.459
		c0.005-6.024,0.005-12.048,0.001-18.073C27.491,9.452,27.021,9,25.993,9z"/>
	<path fill="#FF639F" d="M7.067,19.084c-0.309,0.008-0.579,0.082-0.561,0.441c0.015,0.314,0.259,0.398,0.552,0.395
		c1.207-0.012,2.413-0.012,3.619-0.014c0-0.291,0-0.58,0-0.869C9.476,19.148,8.271,19.061,7.067,19.084z"/>
	<path fill="#262339" d="M19.337,19.924c-0.022,0.021-0.044,0.045-0.066,0.066c-1.268,1.261-2.445,2.433-3.622,3.604
		c-0.229,0.228-0.495,0.474-0.163,0.779c0.288,0.266,0.529,0.045,0.75-0.177c1.464-1.47,2.927-2.94,4.407-4.394
		c0.241-0.236,0.247-0.355,0.004-0.594c-1.479-1.454-2.94-2.926-4.406-4.394c-0.23-0.23-0.471-0.486-0.782-0.157
		c-0.288,0.305-0.032,0.53,0.18,0.742c1.104,1.104,2.209,2.206,3.307,3.313c0.083,0.084,0.245,0.141,0.209,0.32
		c-0.002,0.012-0.003,0.023-0.008,0.037c-0.01,0-0.02,0-0.03,0c-2.76,0-5.521,0-8.283-0.002c-0.049,0-0.098-0.027-0.147-0.043
		c-0.003,0-0.005-0.002-0.008-0.002c0,0.004,0,0.008,0,0.014c0,0.289,0,0.578,0,0.869c0,0.006,0,0.012,0,0.018
		c0.003,0,0.007,0,0.01,0c2.815,0,5.632,0,8.557,0C19.275,19.924,19.306,19.924,19.337,19.924z"/>
</g>
</svg>
