<?xml version="1.0" encoding="utf-8"?>
<!-- Generator: Adobe Illustrator 16.0.0, SVG Export Plug-In . SVG Version: 6.00 Build 0)  -->
<!DOCTYPE svg PUBLIC "-//W3C//DTD SVG 1.1//EN" "http://www.w3.org/Graphics/SVG/1.1/DTD/svg11.dtd">
<svg version="1.1" id="facebook_x5F_B_x5F_hit" xmlns="http://www.w3.org/2000/svg" xmlns:xlink="http://www.w3.org/1999/xlink"
	 x="0px" y="0px" width="44px" height="38px" viewBox="0 0 44 38" enable-background="new 0 0 44 38" xml:space="preserve">
<g>
	<path fill="#FFFFFF" d="M34.32,9.873c-0.43-0.43-0.855-0.863-1.282-1.296C32.035,7.558,31,6.504,29.94,5.52
		c-2.715-2.521-5.55-4-9.156-4.412c-0.779-0.089-1.555-0.134-2.305-0.134c-4.612,0-8.695,1.702-12.137,5.062
		C3.6,8.711,1.872,12.056,1.207,15.977c-0.183,1.078-0.257,2.064-0.226,3.015c0.032,4.819,1.668,9.004,4.865,12.45
		c2.755,2.971,6.103,4.771,9.951,5.353c1.018,0.153,2.025,0.231,2.997,0.231h0.001c4.476,0,8.087-1.65,11.458-4.889
		c2.456-2.357,4.893-4.822,7.249-7.206c1.048-1.06,2.097-2.12,3.149-3.175l2.053-2.068c0.429-0.432,0.43-0.988,0-1.417L34.32,9.873z
		"/>
	<path fill="#FF639F" d="M25.617,27.437c-0.011-0.615,0.18-0.76,0.765-0.741c1.313,0.04,2.625-0.015,3.942,0.025
		c0.554,0.016,0.689-0.178,0.675-0.696c-0.029-1.313-0.029-2.63,0-3.94c0.015-0.521-0.112-0.71-0.669-0.692
		c-1.383,0.04-2.77,0.019-4.154,0.011c-0.219,0-0.541,0.089-0.537-0.285c0.021-1.025-0.143-2.061,0.139-3.066
		c0.178-0.637,0.59-0.98,1.32-0.945c1.098,0.046,2.198-0.014,3.295,0.023c0.49,0.016,0.61-0.17,0.606-0.617
		c-0.021-1.361-0.021-2.724,0-4.086c0.004-0.428-0.132-0.593-0.575-0.582c-1.146,0.025-2.295,0.004-3.441,0.011
		c-3.095,0.022-5.597,1.964-6.401,4.96c-0.352,1.313-0.271,2.652-0.257,3.986c0.006,0.459-0.112,0.631-0.599,0.616
		c-1.071-0.036-2.147,0-3.224-0.017c-0.359-0.006-0.506,0.098-0.498,0.484c0.014,1.43,0.014,2.865-0.004,4.297
		c-0.004,0.402,0.119,0.544,0.53,0.533c1.026-0.023,2.052,0.024,3.077-0.02c0.563-0.025,0.725,0.139,0.72,0.711
		c-0.024,3.342-0.009,6.687-0.003,10.027l0,0c1.834-0.066,3.609-0.407,5.308-1.113C25.632,33.361,25.648,30.398,25.617,27.437z"/>
	<path fill="#FFFFFF" d="M43.396,17.583L35.01,9.184c-0.428-0.428-0.853-0.859-1.277-1.291c-1.01-1.026-2.053-2.088-3.129-3.086
		c-2.87-2.667-5.892-4.23-9.708-4.667C15.023-0.533,9.878,1.223,5.662,5.338c-2.894,2.822-4.715,6.348-5.416,10.477
		c-0.194,1.143-0.272,2.192-0.238,3.197c0.033,5.057,1.757,9.463,5.124,13.093c2.908,3.137,6.448,5.038,10.52,5.653
		C16.717,37.918,17.774,38,18.794,38c0,0,0,0,0,0c4.736,0,8.574-1.743,12.135-5.16c2.465-2.367,4.905-4.836,7.266-7.225
		c1.047-1.059,2.094-2.117,3.146-3.171l2.054-2.069C44.201,19.564,44.201,18.389,43.396,17.583z M42.705,19.688l-2.053,2.068
		c-1.053,1.055-2.102,2.115-3.149,3.175c-2.356,2.384-4.793,4.849-7.249,7.206c-3.371,3.238-6.982,4.889-11.458,4.889h-0.001
		c-0.972,0-1.979-0.078-2.997-0.231c-3.849-0.581-7.196-2.382-9.951-5.353c-3.196-3.445-4.833-7.631-4.865-12.45
		c-0.031-0.95,0.042-1.937,0.226-3.015C1.872,12.056,3.6,8.711,6.343,6.036c3.442-3.359,7.525-5.062,12.137-5.062
		c0.75,0,1.525,0.045,2.305,0.134c3.606,0.412,6.441,1.891,9.156,4.412c1.06,0.984,2.095,2.038,3.098,3.057
		c0.427,0.433,0.853,0.866,1.282,1.296l8.385,8.397C43.135,18.7,43.134,19.256,42.705,19.688z"/>
</g>
</svg>
