<?xml version="1.0" encoding="utf-8"?>
<!-- Generator: Adobe Illustrator 16.0.0, SVG Export Plug-In . SVG Version: 6.00 Build 0)  -->
<!DOCTYPE svg PUBLIC "-//W3C//DTD SVG 1.1//EN" "http://www.w3.org/Graphics/SVG/1.1/DTD/svg11.dtd">
<svg version="1.1" id="google_x5F_B_x5F_hit" xmlns="http://www.w3.org/2000/svg" xmlns:xlink="http://www.w3.org/1999/xlink"
	 x="0px" y="0px" width="44px" height="38px" viewBox="0 0 44 38" enable-background="new 0 0 44 38" xml:space="preserve">
<g>
	<path fill="#FFFFFF" d="M34.32,9.873c-0.43-0.43-0.855-0.863-1.282-1.296C32.035,7.558,31,6.504,29.94,5.52
		c-2.715-2.521-5.55-4-9.156-4.412c-0.779-0.089-1.555-0.134-2.305-0.134c-4.612,0-8.695,1.702-12.137,5.062
		C3.6,8.711,1.872,12.056,1.207,15.977c-0.183,1.078-0.257,2.064-0.226,3.015c0.032,4.819,1.668,9.004,4.865,12.45
		c2.755,2.971,6.103,4.771,9.951,5.353c1.018,0.153,2.025,0.231,2.997,0.231h0.001c4.476,0,8.087-1.65,11.458-4.889
		c2.456-2.357,4.893-4.822,7.249-7.206c1.048-1.06,2.097-2.12,3.149-3.175l2.053-2.068c0.429-0.432,0.43-0.988,0-1.417L34.32,9.873z
		"/>
	<path fill="#FFFFFF" d="M43.396,17.583L35.01,9.184c-0.428-0.428-0.853-0.859-1.277-1.291c-1.01-1.026-2.053-2.088-3.129-3.086
		c-2.87-2.667-5.892-4.23-9.708-4.667C15.023-0.533,9.878,1.223,5.662,5.338c-2.894,2.822-4.715,6.348-5.416,10.477
		c-0.194,1.143-0.272,2.192-0.238,3.197c0.033,5.057,1.757,9.463,5.124,13.093c2.908,3.137,6.448,5.038,10.52,5.653
		C16.717,37.918,17.774,38,18.794,38c0,0,0,0,0,0c4.736,0,8.574-1.743,12.135-5.16c2.465-2.367,4.905-4.836,7.266-7.225
		c1.047-1.059,2.094-2.117,3.146-3.171l2.054-2.069C44.201,19.564,44.201,18.389,43.396,17.583z M42.705,19.688l-2.053,2.068
		c-1.053,1.055-2.102,2.115-3.149,3.175c-2.356,2.384-4.793,4.849-7.249,7.206c-3.371,3.238-6.982,4.889-11.458,4.889h-0.001
		c-0.972,0-1.979-0.078-2.997-0.231c-3.849-0.581-7.196-2.382-9.951-5.353c-3.196-3.445-4.833-7.631-4.865-12.45
		c-0.031-0.95,0.042-1.937,0.226-3.015C1.872,12.056,3.6,8.711,6.343,6.036c3.442-3.359,7.525-5.062,12.137-5.062
		c0.75,0,1.525,0.045,2.305,0.134c3.606,0.412,6.441,1.891,9.156,4.412c1.06,0.984,2.095,2.038,3.098,3.057
		c0.427,0.433,0.853,0.866,1.282,1.296l8.385,8.397C43.135,18.7,43.134,19.256,42.705,19.688z"/>
</g>
<path fill-rule="evenodd" clip-rule="evenodd" fill="#FF639F" d="M25.883,16.954c2.068,0,4.136,0.007,6.203-0.007
	c0.388-0.002,0.623,0.058,0.684,0.509c0.664,4.938-0.949,11.459-6.947,14.465c-8.584,4.3-19.622-0.462-21.08-10.888
	c-0.793-5.672,1.205-10.393,5.854-13.729c4.529-3.247,9.497-3.632,14.621-1.374c1.166,0.514,2.185,1.266,3.155,2.091
	c0.299,0.255,0.277,0.406,0.005,0.663c-1.091,1.027-2.171,2.065-3.238,3.119c-0.262,0.258-0.435,0.244-0.708,0.019
	c-2.738-2.242-5.809-2.526-8.945-1.159c-3.268,1.425-5.082,4.062-5.365,7.644c-0.553,7.001,6.444,11.919,12.845,9.026
	c2.031-0.917,3.37-2.504,4.091-4.623c0.226-0.662,0.048-0.813-0.633-0.799c-2.22,0.042-4.445-0.002-6.667,0.028
	c-0.555,0.007-0.78-0.103-0.753-0.716c0.052-1.188,0.051-2.379,0-3.566c-0.026-0.611,0.196-0.726,0.753-0.716
	C21.8,16.973,23.842,16.954,25.883,16.954z"/>
</svg>
