<?xml version="1.0" encoding="utf-8"?>
<!-- Generator: Adobe Illustrator 16.0.0, SVG Export Plug-In . SVG Version: 6.00 Build 0)  -->
<!DOCTYPE svg PUBLIC "-//W3C//DTD SVG 1.1//EN" "http://www.w3.org/Graphics/SVG/1.1/DTD/svg11.dtd">
<svg version="1.1" id="uj_reg_x5F_A" xmlns="http://www.w3.org/2000/svg" xmlns:xlink="http://www.w3.org/1999/xlink" x="0px"
	 y="0px" width="44px" height="38px" viewBox="0 0 44 38" enable-background="new 0 0 44 38" xml:space="preserve">
<g>
	<path fill="#262339" d="M34.32,9.873c-0.43-0.43-0.855-0.863-1.282-1.296C32.035,7.558,31,6.504,29.94,5.52
		c-2.715-2.521-5.55-4-9.156-4.412c-0.779-0.089-1.555-0.134-2.305-0.134c-4.612,0-8.695,1.702-12.137,5.062
		C3.6,8.711,1.872,12.056,1.207,15.977c-0.183,1.078-0.257,2.064-0.226,3.015c0.032,4.818,1.668,9.004,4.865,12.449
		c2.755,2.971,6.103,4.771,9.951,5.352c1.018,0.154,2.025,0.232,2.997,0.232h0.001c4.476,0,8.087-1.65,11.458-4.889
		c2.456-2.357,4.893-4.822,7.249-7.207c1.048-1.059,2.097-2.119,3.149-3.174l2.053-2.068c0.429-0.432,0.43-0.989,0-1.418
		L34.32,9.873z"/>
	<path fill="#2E2942" d="M43.396,17.582L35.01,9.184c-0.428-0.428-0.853-0.859-1.277-1.291c-1.01-1.026-2.053-2.088-3.129-3.086
		c-2.87-2.667-5.892-4.23-9.708-4.667C15.023-0.533,9.878,1.223,5.662,5.338c-2.894,2.822-4.715,6.348-5.416,10.477
		c-0.194,1.143-0.272,2.193-0.238,3.197c0.033,5.057,1.757,9.463,5.124,13.092c2.908,3.137,6.448,5.039,10.52,5.654
		C16.717,37.918,17.774,38,18.794,38c0,0,0,0,0,0c4.736,0,8.574-1.744,12.135-5.16c2.465-2.367,4.905-4.836,7.266-7.225
		c1.047-1.059,2.094-2.117,3.146-3.172l2.054-2.068C44.201,19.565,44.201,18.389,43.396,17.582z M42.705,19.688l-2.053,2.068
		c-1.053,1.055-2.102,2.115-3.149,3.174c-2.356,2.385-4.793,4.85-7.249,7.207c-3.371,3.238-6.982,4.889-11.458,4.889h-0.001
		c-0.972,0-1.979-0.078-2.997-0.232c-3.849-0.58-7.196-2.381-9.951-5.352c-3.196-3.445-4.833-7.631-4.865-12.449
		c-0.031-0.951,0.042-1.938,0.226-3.015C1.872,12.056,3.6,8.711,6.343,6.036c3.442-3.359,7.525-5.062,12.137-5.062
		c0.75,0,1.525,0.045,2.305,0.134c3.606,0.412,6.441,1.891,9.156,4.412c1.06,0.984,2.095,2.038,3.098,3.057
		c0.427,0.433,0.853,0.866,1.282,1.296l8.385,8.397C43.135,18.699,43.134,19.256,42.705,19.688z"/>
</g>
<path fill-rule="evenodd" clip-rule="evenodd" fill="#FF639F" d="M16.37,21.291c-0.898,0-1.748-0.008-2.602,0.001
	c-0.981,0.001-1.961,0.04-2.943,0.021c-1.203-0.02-2.138-0.918-2.227-2.09c-0.082-1.113,0.71-2.173,1.825-2.383
	c0.43-0.078,0.879-0.046,1.321-0.053c1.422-0.011,2.848-0.02,4.271-0.025c0.108-0.001,0.218-0.02,0.383-0.027
	c0-0.48-0.001-0.949,0-1.412c0.01-1.353,0.018-2.705,0.03-4.063c0.009-1.274,0.995-2.251,2.265-2.26
	c1.254-0.011,2.256,0.985,2.252,2.267c-0.008,1.667-0.044,3.345-0.065,5.012c-0.001,0.133,0,0.27,0,0.432
	c0.898,0,1.748,0.007,2.602-0.002c0.98-0.005,1.961-0.044,2.943-0.024c1.201,0.02,2.139,0.918,2.227,2.09
	c0.084,1.132-0.732,2.204-1.865,2.388c-0.42,0.073-0.855,0.047-1.281,0.053c-1.422,0.01-2.848,0.02-4.27,0.023
	c-0.11,0.003-0.219,0.017-0.385,0.029c0,0.475,0.001,0.943,0,1.412c-0.01,1.349-0.017,2.704-0.029,4.063
	c-0.01,1.288-1.018,2.267-2.304,2.259c-1.236-0.014-2.218-1.009-2.213-2.266c0.008-1.657,0.044-3.313,0.065-4.973
	C16.37,21.608,16.37,21.465,16.37,21.291z"/>
</svg>
